<?xml version="1.0" standalone="no"?>
<!DOCTYPE svg PUBLIC "-//W3C//DTD SVG 20010904//EN"
 "http://www.w3.org/TR/2001/REC-SVG-20010904/DTD/svg10.dtd">
<svg version="1.0" xmlns="http://www.w3.org/2000/svg"
 width="310.000000pt" height="310.000000pt" viewBox="0 0 310.000000 310.000000"
 preserveAspectRatio="xMidYMid meet">
<metadata>
Created by potrace 1.11, written by Peter Selinger 2001-2013
</metadata>
<g transform="translate(0.000000,310.000000) scale(0.100000,-0.100000)"
fill="#000000" stroke="none">
<path d="M1659 2654 c-5 -6 -23 -10 -39 -8 -17 2 -30 -1 -30 -6 0 -6 -11 -10
-24 -10 -14 0 -28 -5 -31 -11 -4 -6 -13 -8 -21 -5 -8 3 -14 0 -14 -7 0 -7 -10
-14 -22 -14 -13 -1 -24 -7 -26 -13 -2 -5 -10 -10 -18 -10 -8 0 -14 -5 -14 -12
0 -6 -3 -9 -6 -5 -4 3 -13 -1 -21 -9 -8 -8 -19 -11 -25 -8 -6 4 -9 3 -6 -2 6
-11 -28 -45 -36 -36 -3 3 -6 -2 -6 -12 0 -9 -4 -15 -9 -12 -5 3 -11 -1 -15 -9
-3 -8 -15 -15 -26 -15 -12 0 -19 -4 -16 -8 3 -5 -4 -14 -14 -22 -10 -8 -17
-17 -14 -21 2 -4 -6 -15 -18 -23 -12 -9 -19 -16 -15 -16 4 0 2 -6 -5 -14 -7
-8 -16 -12 -20 -9 -4 2 -5 -2 -3 -10 3 -7 -3 -21 -14 -31 -11 -10 -17 -25 -14
-34 4 -9 2 -13 -4 -9 -22 14 -24 -43 -4 -72 11 -16 19 -30 18 -32 -1 -3 2 -1
6 2 5 4 25 4 45 2 20 -3 34 -2 30 2 -4 4 4 16 17 27 16 12 22 25 18 36 -3 9
-3 14 1 10 9 -7 69 53 61 60 -3 3 8 18 24 33 16 15 26 31 23 35 -4 4 1 4 10 1
10 -3 20 -1 24 5 5 7 2 8 -7 4 -8 -4 -5 -1 5 8 10 8 23 13 27 10 4 -2 13 5 19
16 6 11 17 20 25 20 8 0 15 5 15 11 0 5 4 8 9 5 5 -3 12 1 15 10 3 8 10 12 16
9 6 -3 13 1 16 10 4 9 13 14 20 11 8 -3 14 -1 14 5 0 6 5 7 10 4 6 -3 10 -2
10 4 0 6 6 8 14 5 7 -3 20 1 27 8 17 15 41 17 51 3 5 -6 8 -5 8 3 0 6 7 12 15
12 8 0 15 3 15 8 0 4 60 7 132 6 118 -1 135 1 149 17 17 20 17 71 0 77 -6 2
-9 8 -5 13 3 5 -2 9 -11 9 -9 0 -14 4 -11 8 8 13 -313 10 -325 -4z"/>
<path d="M2234 2619 c-3 -5 -19 -9 -35 -9 -18 0 -28 -4 -24 -10 3 -5 -1 -10
-9 -10 -9 0 -16 -4 -16 -10 0 -5 -6 -10 -12 -10 -15 0 -78 -57 -78 -71 0 -5 0
-12 1 -16 0 -3 -6 -10 -15 -15 -9 -5 -13 -15 -9 -25 5 -12 3 -14 -7 -8 -10 6
-12 4 -7 -8 3 -9 -3 -27 -14 -41 -11 -13 -16 -27 -11 -30 4 -2 7 -27 6 -55 0
-31 4 -55 12 -62 7 -6 11 -16 8 -24 -3 -7 0 -16 5 -20 6 -3 9 -11 6 -16 -4 -5
-1 -9 4 -9 6 0 11 -8 11 -17 0 -9 2 -14 5 -11 8 7 72 -55 67 -64 -2 -5 4 -8
12 -8 9 0 16 -4 16 -10 0 -5 9 -10 20 -10 11 0 20 -5 20 -12 0 -6 3 -8 7 -5 3
4 12 2 19 -4 8 -6 21 -9 29 -5 8 3 15 1 15 -4 0 -6 9 -6 24 0 39 14 42 -16 4
-35 -17 -8 -34 -15 -38 -15 -5 0 -33 -25 -63 -55 -30 -30 -53 -55 -50 -55 3 0
0 -7 -7 -15 -7 -8 -9 -15 -4 -15 4 0 -1 -7 -12 -16 -10 -8 -13 -13 -6 -9 6 3
3 -9 -8 -28 -12 -19 -23 -45 -25 -58 -3 -13 -9 -25 -14 -27 -6 -2 -7 -10 -4
-19 4 -10 2 -14 -4 -10 -6 4 -13 -2 -16 -13 -3 -11 -1 -18 4 -14 5 3 6 -2 3
-10 -3 -9 -10 -16 -16 -16 -5 0 -7 -4 -3 -9 3 -5 -1 -15 -8 -23 -8 -7 -13 -23
-12 -36 1 -13 -5 -27 -14 -32 -9 -5 -12 -10 -7 -10 5 0 3 -7 -4 -15 -7 -9 -14
-25 -15 -38 -1 -12 -3 -28 -4 -34 0 -7 -6 -13 -12 -13 -5 0 -7 5 -3 12 4 6 3
8 -4 5 -5 -4 -8 -16 -5 -27 3 -11 0 -20 -6 -20 -9 0 -9 -5 0 -21 6 -12 7 -19
1 -15 -6 3 -15 -8 -21 -24 -5 -17 -15 -30 -20 -30 -6 0 -8 -7 -5 -15 4 -8 1
-15 -5 -15 -6 0 -11 -13 -11 -30 0 -16 -5 -30 -11 -30 -5 0 -7 -4 -4 -10 3 -5
1 -10 -5 -10 -6 0 -9 -4 -6 -9 3 -5 -1 -12 -10 -15 -12 -5 -14 -9 -5 -20 8
-10 8 -16 -4 -26 -8 -7 -13 -15 -11 -19 3 -4 -4 -12 -15 -19 -14 -9 -19 -9
-19 0 0 6 -3 8 -7 5 -3 -4 -12 -2 -20 4 -7 6 -13 8 -13 5 0 -4 -12 5 -26 19
-14 14 -29 23 -33 21 -4 -3 -14 4 -21 15 -8 10 -22 19 -32 19 -10 0 -18 7 -18
16 0 8 -4 13 -8 10 -5 -3 -15 4 -22 15 -8 10 -19 19 -26 19 -6 0 -19 9 -29 20
-10 11 -21 17 -26 14 -5 -2 -18 7 -31 21 -12 14 -30 25 -40 25 -10 0 -18 7
-18 15 0 8 -8 15 -17 15 -22 1 -55 25 -46 33 3 4 -3 7 -15 7 -11 0 -27 9 -35
20 -8 12 -18 20 -23 19 -17 -4 -64 13 -64 23 0 7 -4 7 -13 0 -7 -6 -19 -7 -26
-3 -17 11 -99 -6 -94 -20 1 -3 -5 -6 -13 -6 -7 0 -14 5 -14 11 0 6 -4 5 -9 -2
-4 -8 -10 -13 -12 -12 -12 4 -46 -18 -81 -52 -21 -21 -42 -37 -46 -35 -10 5
-91 -81 -83 -89 3 -3 2 -5 -4 -4 -5 1 -15 2 -21 1 -16 -2 -64 -48 -57 -55 4
-3 -1 -6 -10 -6 -9 0 -17 -4 -17 -9 0 -4 -20 -21 -44 -36 -25 -16 -44 -33 -43
-39 1 -6 -4 -10 -10 -8 -7 1 -13 -2 -13 -8 0 -5 -9 -10 -21 -10 -11 0 -19 -3
-17 -7 2 -5 -11 -22 -29 -40 -18 -17 -33 -28 -33 -25 0 4 -5 0 -10 -8 -5 -8
-13 -15 -17 -16 -20 -2 -43 -17 -43 -28 0 -6 -9 -19 -20 -29 -11 -9 -20 -14
-20 -11 0 9 -43 -48 -62 -82 -10 -17 -15 -34 -12 -37 10 -10 11 -57 1 -57 -5
0 -5 -5 2 -13 8 -10 7 -17 -1 -25 -9 -9 -9 -12 1 -12 7 0 9 -4 6 -10 -7 -11
28 -93 36 -85 3 3 12 -6 19 -20 7 -14 19 -25 26 -25 6 0 14 -6 17 -14 4 -9 14
-12 26 -9 13 3 21 1 21 -7 0 -7 7 -10 15 -6 8 3 15 0 15 -7 0 -8 4 -7 10 3 8
12 11 13 19 1 6 -9 11 -10 15 -3 4 6 14 8 22 5 8 -3 26 0 40 7 13 8 27 11 30
8 3 -4 22 9 42 28 20 19 40 34 45 34 5 0 27 18 49 41 22 22 42 38 45 35 3 -3
24 14 47 37 50 52 84 79 71 58 -4 -8 16 9 45 38 30 28 59 51 64 51 6 0 26 18
45 40 19 23 40 39 47 36 7 -3 15 3 19 12 6 16 7 16 16 0 5 -10 16 -15 24 -12
10 4 15 0 15 -11 0 -9 5 -13 10 -10 6 3 10 1 10 -6 0 -6 8 -9 19 -6 13 3 18 0
15 -8 -4 -10 13 -24 31 -25 3 0 12 -5 21 -12 8 -7 20 -17 27 -23 7 -5 24 -16
40 -24 15 -8 27 -18 27 -23 0 -4 7 -8 15 -8 9 0 18 -7 21 -15 4 -8 10 -12 15
-9 5 3 9 0 9 -7 0 -7 3 -9 6 -6 4 3 20 -8 37 -26 16 -17 35 -32 41 -32 7 0 20
-8 30 -18 10 -9 24 -17 32 -17 8 0 14 -4 14 -9 0 -5 17 -18 38 -29 20 -11 36
-25 35 -31 -2 -5 3 -8 10 -5 7 2 29 -6 48 -19 19 -13 40 -22 47 -19 7 2 18 -1
25 -6 7 -5 31 -10 54 -10 24 -1 47 -3 52 -6 5 -4 12 0 15 6 5 11 7 11 12 0 3
-6 11 -9 17 -5 6 4 37 6 69 5 37 -1 62 3 70 11 6 8 22 11 35 9 17 -3 23 0 23
14 0 16 2 16 10 4 8 -12 10 -12 16 3 3 9 13 17 20 17 8 0 25 9 37 20 12 11 28
18 36 15 9 -3 12 -3 8 1 -4 4 2 14 13 21 11 8 17 19 14 25 -4 6 -3 9 2 6 10
-7 27 11 32 32 2 8 10 19 18 23 8 4 14 15 14 22 0 8 5 15 12 15 6 0 8 3 5 7
-4 3 1 15 10 26 10 11 12 17 6 13 -8 -4 -6 5 4 23 10 16 20 28 23 26 4 -2 5 9
2 24 -2 16 1 32 9 36 8 6 10 4 4 -5 -5 -8 -4 -11 3 -6 6 4 9 13 5 21 -3 8 -1
15 5 15 12 0 11 18 -2 39 -6 10 -5 12 2 7 7 -4 17 4 24 21 7 15 15 30 18 33 3
3 6 13 8 24 6 34 21 66 31 66 6 0 8 7 5 15 -4 8 -1 15 6 15 7 0 10 7 6 15 -3
8 -1 15 5 15 6 0 8 4 4 10 -6 10 13 50 30 62 6 4 6 8 1 8 -5 0 -3 7 4 15 10
12 10 15 -1 15 -9 0 -10 3 -4 8 20 14 42 57 40 79 -1 12 4 24 12 27 7 3 10 12
6 22 -4 12 -3 15 5 10 12 -7 16 4 12 38 -1 10 3 15 8 12 6 -3 13 1 16 10 4 10
2 13 -6 8 -7 -4 -2 6 10 23 12 18 19 38 16 47 -4 9 -1 16 6 16 7 0 10 8 7 20
-3 11 -2 22 2 24 5 4 6 82 1 96 -1 3 -1 10 0 15 5 21 1 185 -4 194 -4 5 -3 12
2 14 6 5 8 81 2 97 -1 3 -1 10 0 15 5 21 1 185 -4 194 -4 5 -3 12 2 14 6 5 8
81 2 97 -1 3 -1 10 0 15 8 32 0 110 -13 120 -7 5 -12 15 -10 20 5 15 -55 57
-69 49 -7 -4 -8 -3 -4 4 7 12 -6 14 -106 14 -26 0 -45 4 -42 9 3 5 -1 9 -9 9
-23 0 -77 30 -77 43 0 8 -3 8 -9 -1 -7 -11 -9 -11 -14 1 -4 12 -24 15 -86 15
-45 0 -84 -4 -87 -9z m94 -136 c4 -5 15 -9 25 -7 10 1 25 -8 34 -22 17 -26 24
-96 12 -116 -4 -7 -3 -20 2 -29 6 -12 5 -20 -1 -24 -8 -5 -7 -11 1 -21 9 -11
9 -14 -1 -14 -10 0 -10 -3 0 -15 10 -12 10 -15 -1 -15 -10 0 -10 -3 -2 -11 9
-9 9 -15 -1 -23 -40 -36 -90 -40 -151 -10 -43 20 -57 33 -49 46 3 4 -2 8 -10
8 -8 0 -18 5 -22 12 -5 7 -3 8 7 3 11 -7 11 -5 -1 10 -17 20 -21 95 -5 95 6 0
4 4 -3 9 -11 6 -10 11 3 24 9 9 13 21 10 27 -3 5 -2 10 3 10 5 0 22 12 38 27
16 15 39 27 51 28 12 0 25 4 30 9 5 5 2 6 -6 1 -9 -5 -12 -4 -8 3 8 12 36 10
45 -5z m291 -79 c9 -8 9 -794 0 -794 -3 0 -9 -9 -12 -20 -3 -11 0 -20 6 -20 6
0 2 -6 -9 -14 -10 -8 -19 -18 -20 -23 -2 -23 -19 -72 -35 -100 -10 -18 -16
-33 -13 -33 4 0 1 -6 -5 -13 -6 -8 -8 -17 -4 -20 3 -4 2 -7 -4 -7 -6 0 -9 -10
-6 -22 3 -13 2 -20 -2 -16 -14 13 -37 -13 -25 -27 8 -9 7 -17 -2 -27 -7 -7
-14 -20 -16 -28 -2 -8 -7 -17 -11 -20 -4 -3 -6 -12 -6 -20 1 -8 -5 -23 -13
-32 -8 -10 -12 -18 -8 -18 4 0 0 -10 -8 -21 -8 -12 -12 -28 -9 -35 3 -9 -2
-14 -13 -14 -14 0 -15 -3 -6 -8 9 -7 8 -14 -8 -32 -16 -18 -17 -25 -8 -31 10
-6 8 -12 -7 -23 -11 -9 -16 -16 -12 -16 5 0 1 -7 -7 -16 -9 -8 -14 -20 -11
-25 4 -5 1 -9 -4 -9 -6 0 -10 -3 -10 -7 1 -5 0 -11 -1 -15 -1 -5 -3 -11 -5
-15 -1 -5 -5 -16 -8 -25 -4 -10 -9 -25 -12 -34 -3 -8 -10 -12 -16 -8 -8 4 -9
3 -5 -4 4 -6 2 -19 -3 -29 -5 -10 -12 -26 -15 -36 -3 -10 -10 -15 -16 -12 -5
3 -10 2 -10 -3 0 -5 -9 -19 -20 -32 -11 -13 -20 -20 -20 -16 0 4 -14 -4 -31
-18 -17 -14 -35 -24 -40 -20 -5 3 -9 -1 -9 -9 0 -8 -9 -13 -22 -12 -13 1 -32
-3 -43 -10 -17 -9 -75 -12 -158 -6 -10 0 -16 5 -13 10 3 5 -6 8 -21 8 -15 0
-29 5 -31 11 -2 6 -9 9 -17 6 -7 -3 -18 4 -25 15 -6 12 -17 21 -25 21 -8 0
-23 10 -35 22 -11 12 -23 19 -26 15 -3 -3 -17 5 -30 18 -13 13 -33 26 -44 30
-11 3 -20 10 -20 14 0 5 -13 14 -30 21 -16 7 -30 16 -30 20 0 4 -13 13 -30 20
-17 7 -27 17 -23 24 3 6 3 8 -2 4 -4 -4 -14 -3 -22 3 -7 6 -13 8 -13 3 0 -5
-8 3 -17 16 -10 14 -17 28 -16 32 2 4 -6 5 -17 3 -11 -2 -25 4 -33 16 -8 10
-17 16 -20 12 -4 -3 -7 -1 -7 5 0 7 -7 12 -15 12 -8 0 -15 4 -15 9 0 9 -38 24
-53 22 -5 -1 -6 3 -2 8 9 16 -48 41 -68 30 -9 -6 -17 -6 -17 -1 0 5 -7 9 -15
9 -8 0 -15 -4 -15 -9 0 -5 -8 -5 -17 0 -18 10 -63 -4 -63 -19 0 -5 -18 -18
-40 -29 -22 -11 -40 -25 -40 -30 0 -5 -9 -12 -21 -15 -11 -4 -18 -9 -15 -12 6
-6 -37 -43 -49 -43 -4 0 -22 -16 -41 -35 -18 -19 -38 -35 -44 -35 -6 0 -8 -5
-4 -12 4 -7 3 -8 -4 -4 -7 4 -30 -11 -56 -38 -24 -24 -47 -42 -50 -39 -3 4 -6
0 -6 -7 0 -7 -2 -11 -5 -8 -8 8 -70 -55 -66 -67 1 -5 -1 -7 -4 -3 -10 10 -67
-21 -60 -32 9 -14 -11 -12 -27 2 -7 7 -22 15 -33 16 -11 2 -24 8 -30 14 -7 8
-5 9 5 4 8 -4 6 0 -5 9 -23 18 -29 74 -9 82 7 2 10 11 7 19 -3 8 1 14 9 14 7
0 31 17 52 38 21 20 44 37 51 37 7 0 33 23 59 50 25 28 50 50 55 50 5 0 21 12
36 28 15 15 32 27 36 27 5 0 8 6 7 13 -2 6 3 11 10 9 6 -1 12 3 12 9 0 6 7 9
15 5 9 -3 15 0 15 9 0 7 5 17 12 21 7 5 8 3 3 -6 -5 -9 -4 -11 3 -6 7 4 12 13
12 19 0 7 10 19 23 27 22 14 27 16 48 19 5 0 7 6 4 12 -4 6 2 13 13 16 11 2
22 12 25 21 2 10 17 24 33 32 16 8 42 28 58 43 16 15 34 26 41 23 7 -2 21 1
31 9 15 11 22 11 37 0 11 -8 25 -11 32 -8 8 2 18 -5 25 -16 6 -12 18 -21 28
-21 9 0 32 -17 51 -37 18 -21 30 -32 27 -25 -12 20 5 14 29 -12 13 -14 26 -22
29 -19 3 4 6 0 6 -8 0 -12 2 -12 9 0 7 11 10 9 15 -7 6 -19 40 -39 59 -34 6 2
11 -13 8 -30 0 -4 5 -5 13 -2 7 3 27 -6 44 -20 16 -15 35 -26 40 -26 6 0 17
-8 24 -19 13 -18 18 -21 39 -21 5 0 7 -4 4 -10 -3 -5 1 -10 10 -10 9 0 23 -7
31 -15 18 -17 38 -20 28 -4 -4 8 0 8 15 0 11 -7 21 -15 21 -20 0 -4 10 -7 23
-5 12 1 26 3 30 3 5 1 6 5 3 9 -3 5 8 9 24 10 35 1 53 10 45 23 -4 5 1 9 9 9
8 0 17 9 21 20 3 11 11 19 17 17 6 -1 12 7 14 17 1 10 7 22 12 25 5 3 8 14 6
24 -1 9 2 17 7 17 6 0 7 5 4 10 -3 6 -1 10 5 10 6 0 9 4 5 9 -3 5 1 15 8 23 7
7 13 21 13 31 2 34 4 37 22 38 11 0 12 2 4 6 -10 4 -9 10 5 26 12 14 13 18 3
12 -13 -8 -13 -6 -2 8 8 9 11 20 8 26 -3 5 1 12 10 15 9 4 14 9 11 13 -4 3 3
19 14 35 12 16 19 32 15 35 -3 3 0 15 6 27 7 11 12 24 13 28 0 4 8 16 17 27
10 11 13 23 8 26 -5 3 -7 12 -4 20 4 8 10 13 15 10 4 -3 6 3 4 15 -2 11 1 23
7 26 7 5 8 2 3 -6 -5 -8 -4 -11 3 -7 5 4 9 18 7 32 -1 14 4 30 11 36 8 6 12
15 9 19 -3 4 2 13 10 20 8 7 12 16 10 20 -3 5 4 25 15 45 11 20 18 40 15 46
-4 5 1 9 9 9 9 0 16 5 16 10 0 6 9 19 20 30 11 11 25 20 30 20 6 0 10 7 10 15
0 9 6 12 15 9 8 -4 15 -1 15 6 0 6 5 8 10 5 6 -3 10 -2 10 3 0 5 8 9 18 9 27
0 62 14 62 25 0 6 7 7 16 4 8 -3 12 -2 9 4 -3 6 -1 10 4 10 6 0 11 7 11 15 0
8 5 15 10 15 6 0 10 7 10 16 0 8 3 13 8 11 4 -3 7 83 6 191 -1 229 4 252 48
246 17 -2 33 -6 37 -10z m-250 -401 c4 -3 -28 2 -47 6 -2 1 0 6 3 11 5 8 12 7
23 -2 10 -7 19 -14 21 -15z"/>
<path d="M1715 2333 c-10 -6 -23 -9 -31 -6 -8 3 -16 -1 -19 -9 -3 -8 -16 -14
-28 -13 -26 2 -55 -12 -79 -39 -10 -10 -18 -16 -18 -12 0 4 -7 0 -16 -8 -8 -9
-20 -13 -26 -10 -6 4 -8 3 -5 -3 3 -5 -4 -18 -16 -28 -12 -11 -22 -18 -22 -16
0 1 -8 -1 -17 -4 -10 -4 -15 -12 -11 -18 4 -6 0 -8 -10 -4 -9 3 -16 3 -16 -1
3 -20 -4 -34 -33 -67 -18 -19 -34 -38 -34 -43 -5 -25 -18 -52 -25 -52 -5 0 -9
-9 -9 -21 0 -11 -3 -18 -8 -15 -4 2 -7 -12 -7 -31 2 -57 46 -91 95 -73 3 2 8
2 13 1 4 0 7 4 7 10 0 5 5 7 10 4 6 -3 10 3 10 14 0 12 7 21 15 21 13 0 14 4
4 22 -10 18 -9 20 4 15 10 -4 14 -1 11 6 -2 7 5 22 16 34 11 12 20 27 20 33 0
5 5 10 12 10 6 0 9 3 6 6 -8 7 55 72 65 67 4 -2 7 1 7 6 0 6 6 11 14 11 8 0
16 6 19 14 3 8 16 16 29 18 13 2 22 9 20 16 -2 9 4 11 18 7 12 -4 27 -1 35 5
8 7 15 9 15 5 0 -4 7 -2 15 5 8 7 15 9 15 4 0 -4 5 -3 12 4 7 7 39 12 73 12
74 0 113 9 93 21 -10 7 -9 9 3 9 15 0 29 19 29 40 0 5 -7 16 -16 24 -8 9 -11
16 -4 16 8 0 7 4 -1 13 -16 16 -211 17 -234 0z"/>
</g>
</svg>
